<svg width="100" height="94" viewBox="0 0 100 94" fill="none" xmlns="http://www.w3.org/2000/svg">
<path d="M37.5 78.125C37.5 77.2962 37.8292 76.5013 38.4153 75.9153C39.0013 75.3292 39.7962 75 40.625 75H59.375C60.2038 75 60.9987 75.3292 61.5847 75.9153C62.1708 76.5013 62.5 77.2962 62.5 78.125C62.5 78.9538 62.1708 79.7487 61.5847 80.3347C60.9987 80.9208 60.2038 81.25 59.375 81.25H40.625C39.7962 81.25 39.0013 80.9208 38.4153 80.3347C37.8292 79.7487 37.5 78.9538 37.5 78.125ZM18.75 50.3875C18.75 42.25 26.4687 36.0313 34.5625 36.7875C44.8319 37.7452 55.1681 37.7452 65.4375 36.7875C73.5312 36.0313 81.25 42.25 81.25 50.3875V57.6187C81.2793 59.0026 80.8139 60.3514 79.9374 61.4227C79.0609 62.4939 77.831 63.2172 76.4687 63.4625C71.1875 64.3813 61.8437 65.625 50 65.625C38.1562 65.625 28.8125 64.375 23.5312 63.4625C22.169 63.2172 20.939 62.4939 20.0626 61.4227C19.1861 60.3514 18.7207 59.0026 18.75 57.6187V50.3875ZM47.1375 45.2188C46.8939 45.1773 46.644 45.1942 46.4082 45.2681C46.1725 45.342 45.9576 45.4707 45.7812 45.6437L40.0312 51.2688C36.1204 51.0342 32.2197 50.6527 28.3375 50.125C27.9352 50.085 27.5331 50.2025 27.2156 50.4528C26.8982 50.7031 26.6901 51.0667 26.635 51.4672C26.58 51.8677 26.6824 52.2739 26.9206 52.6006C27.1588 52.9272 27.5143 53.1488 27.9125 53.2188C31.35 53.6938 35.6125 54.15 40.5375 54.425C40.7544 54.4372 40.9715 54.4041 41.1749 54.3277C41.3783 54.2513 41.5635 54.1333 41.7187 53.9813L46.4312 49.3813L51.725 60.0688C51.8365 60.293 52.0003 60.4871 52.2025 60.6348C52.4047 60.7825 52.6395 60.8794 52.887 60.9174C53.1345 60.9553 53.3875 60.9333 53.6247 60.853C53.8619 60.7728 54.0764 60.6367 54.25 60.4563L60.075 54.3938C64.0928 54.1569 68.1 53.765 72.0875 53.2188C72.4857 53.1488 72.8412 52.9272 73.0794 52.6006C73.3176 52.2739 73.42 51.8677 73.365 51.4672C73.3099 51.0667 73.1018 50.7031 72.7844 50.4528C72.4669 50.2025 72.0648 50.085 71.6625 50.125C68.3 50.5875 64.1187 51.0312 59.2875 51.3062C58.8941 51.3281 58.5236 51.4978 58.25 51.7812L53.5375 56.6875L48.275 46.0625C48.1652 45.8422 48.005 45.651 47.8073 45.5043C47.6097 45.3577 47.3802 45.2599 47.1375 45.2188Z" fill="url(#paint0_linear_2015_6)"/>
<path d="M53.125 11.6627C54.3165 10.9747 55.2477 9.91288 55.7742 8.64177C56.3008 7.37066 56.3931 5.96134 56.037 4.63238C55.6809 3.30342 54.8963 2.1291 53.8048 1.29154C52.7132 0.453984 51.3758 0 50 0C48.6242 0 47.2868 0.453984 46.1952 1.29154C45.1037 2.1291 44.3191 3.30342 43.963 4.63238C43.6069 5.96134 43.6992 7.37066 44.2258 8.64177C44.7523 9.91288 45.6835 10.9747 46.875 11.6627V18.7502H34.375C26.9158 18.7502 19.7621 21.7133 14.4876 26.9878C9.21316 32.2622 6.25 39.4159 6.25 46.8752V50.0002C4.5924 50.0002 3.00269 50.6586 1.83058 51.8307C0.65848 53.0028 0 54.5926 0 56.2502L0 68.7502C0 70.4078 0.65848 71.9975 1.83058 73.1696C3.00269 74.3417 4.5924 75.0002 6.25 75.0002V81.2502C6.25 84.5654 7.56696 87.7448 9.91117 90.089C12.2554 92.4332 15.4348 93.7502 18.75 93.7502H81.25C84.5652 93.7502 87.7446 92.4332 90.0888 90.089C92.433 87.7448 93.75 84.5654 93.75 81.2502V75.0002C95.4076 75.0002 96.9973 74.3417 98.1694 73.1696C99.3415 71.9975 100 70.4078 100 68.7502V56.2502C100 54.5926 99.3415 53.0028 98.1694 51.8307C96.9973 50.6586 95.4076 50.0002 93.75 50.0002V46.8752C93.75 39.4159 90.7868 32.2622 85.5124 26.9878C80.2379 21.7133 73.0842 18.7502 65.625 18.7502H53.125V11.6627ZM87.5 46.8752V81.2502C87.5 82.9078 86.8415 84.4975 85.6694 85.6696C84.4973 86.8417 82.9076 87.5002 81.25 87.5002H18.75C17.0924 87.5002 15.5027 86.8417 14.3306 85.6696C13.1585 84.4975 12.5 82.9078 12.5 81.2502V46.8752C12.5 41.0735 14.8047 35.5096 18.907 31.4072C23.0094 27.3048 28.5734 25.0002 34.375 25.0002H65.625C71.4266 25.0002 76.9906 27.3048 81.093 31.4072C85.1953 35.5096 87.5 41.0735 87.5 46.8752Z" fill="url(#paint1_linear_2015_6)"/>
<defs>
<linearGradient id="paint0_linear_2015_6" x1="27.1865" y1="49.0734" x2="117.22" y2="153.217" gradientUnits="userSpaceOnUse">
<stop stop-color="#FF00CC"/>
<stop offset="1" stop-color="#333399"/>
</linearGradient>
<linearGradient id="paint1_linear_2015_6" x1="13.5" y1="26" x2="203.5" y2="193" gradientUnits="userSpaceOnUse">
<stop stop-color="#FF00CC"/>
<stop offset="1" stop-color="#333399"/>
</linearGradient>
</defs>
</svg>
